# MagicaVoxel @ Ephtracy

# group
g untitled

# material
mtllib untitled.mtl
usemtl palette

# normals
vn -1 0 0
vn 1 0 0
vn 0 0 1
vn 0 0 -1
vn 0 -1 0
vn 0 1 0

# texcoords
vt 0.970703 0.5
vt 0.974609 0.5
vt 0.978516 0.5

# verts
v -8 0 8
v -8 0 -8
v -8 1 8
v -8 1 7
v -8 1 6
v -8 1 4
v -8 1 3
v -8 1 1
v -8 1 -0
v -8 1 -1
v -8 1 -2
v -8 1 -4
v -8 1 -5
v -8 1 -6
v -8 1 -8
v -8 2 7
v -8 2 6
v -8 2 4
v -8 2 3
v -8 2 1
v -8 2 -0
v -8 2 -1
v -8 2 -2
v -8 2 -4
v -8 2 -5
v -8 2 -6
v -8 2 -8
v 8 0 8
v 8 0 -8
v 8 1 8
v 8 1 7
v 8 1 6
v 8 1 5
v 8 1 4
v 8 1 3
v 8 1 1
v 8 1 -0
v 8 1 -1
v 8 1 -3
v 8 1 -4
v 8 1 -5
v 8 1 -6
v 8 1 -8
v 8 2 7
v 8 2 6
v 8 2 5
v 8 2 4
v 8 2 3
v 8 2 1
v 8 2 -0
v 8 2 -1
v 8 2 -3
v 8 2 -4
v 8 2 -5
v 8 2 -6
v 8 2 -8
v -8 0 8
v -8 1 8
v 8 0 8
v 8 1 8
v -8 1 7
v -8 2 7
v -4 1 7
v -4 2 7
v 4 1 7
v 4 2 7
v 6 1 7
v 6 2 7
v 8 1 7
v 8 2 7
v -8 1 3
v -8 2 3
v -5 1 3
v -5 2 3
v -3 1 3
v -3 2 3
v 1 1 3
v 1 2 3
v 2 1 3
v 2 2 3
v 4 1 3
v 4 2 3
v 6 1 3
v 6 2 3
v 8 1 3
v 8 2 3
v -8 1 -1
v -8 2 -1
v -7 1 -1
v -7 2 -1
v 0 1 -1
v 0 2 -1
v 3 1 -1
v 3 2 -1
v 5 1 -1
v 5 2 -1
v 7 1 -1
v 7 2 -1
v 8 1 -1
v 8 2 -1
v -8 1 -5
v -8 2 -5
v -5 1 -5
v -5 2 -5
v -2 1 -5
v -2 2 -5
v 1 1 -5
v 1 2 -5
v 7 1 -5
v 7 2 -5
v 8 1 -5
v 8 2 -5
v -8 1 4
v -8 2 4
v -7 1 4
v -7 2 4
v -4 1 4
v -4 2 4
v -2 1 4
v -2 2 4
v 0 1 4
v 0 2 4
v 8 1 4
v 8 2 4
v -8 1 -0
v -8 2 -0
v -7 1 -0
v -7 2 -0
v -1 1 -0
v -1 2 -0
v 2 1 -0
v 2 2 -0
v 5 1 -0
v 5 2 -0
v 8 1 -0
v 8 2 -0
v -8 1 -4
v -8 2 -4
v -5 1 -4
v -5 2 -4
v -3 1 -4
v -3 2 -4
v 5 1 -4
v 5 2 -4
v 8 1 -4
v 8 2 -4
v -8 0 -8
v -8 1 -8
v -8 2 -8
v -6 1 -8
v -6 2 -8
v -5 1 -8
v -5 2 -8
v -3 1 -8
v -3 2 -8
v -1 1 -8
v -1 2 -8
v 5 1 -8
v 5 2 -8
v 7 1 -8
v 7 2 -8
v 8 0 -8
v 8 1 -8
v 8 2 -8
v -8 0 8
v 8 0 8
v -8 0 -8
v 8 0 -8
v -8 1 8
v 8 1 8
v -8 1 7
v -4 1 7
v 4 1 7
v 6 1 7
v 8 1 7
v -8 1 4
v -7 1 4
v -4 1 4
v -2 1 4
v 0 1 4
v 8 1 4
v -8 1 3
v -5 1 3
v -3 1 3
v 1 1 3
v 2 1 3
v 4 1 3
v 6 1 3
v 8 1 3
v -8 1 -0
v -7 1 -0
v -1 1 -0
v 2 1 -0
v 5 1 -0
v 8 1 -0
v -8 1 -1
v -7 1 -1
v 0 1 -1
v 3 1 -1
v 5 1 -1
v 7 1 -1
v 8 1 -1
v -8 1 -4
v -5 1 -4
v -3 1 -4
v 5 1 -4
v 8 1 -4
v -8 1 -5
v -5 1 -5
v -2 1 -5
v 1 1 -5
v 7 1 -5
v 8 1 -5
v -8 2 7
v -4 2 7
v 4 2 7
v 6 2 7
v 8 2 7
v -8 2 6
v -4 2 6
v -2 2 6
v 0 2 6
v 3 2 6
v 4 2 6
v 6 2 6
v 8 2 6
v -7 2 5
v -4 2 5
v -2 2 5
v 0 2 5
v 3 2 5
v 6 2 5
v 8 2 5
v -8 2 4
v -7 2 4
v -4 2 4
v -2 2 4
v 0 2 4
v 8 2 4
v -8 2 3
v -5 2 3
v -3 2 3
v 1 2 3
v 2 2 3
v 4 2 3
v 6 2 3
v 8 2 3
v -7 2 2
v -5 2 2
v -3 2 2
v 0 2 2
v 1 2 2
v 2 2 2
v 4 2 2
v 5 2 2
v 6 2 2
v -8 2 1
v -7 2 1
v -5 2 1
v -3 2 1
v -1 2 1
v 0 2 1
v 2 2 1
v 5 2 1
v 8 2 1
v -8 2 -0
v -7 2 -0
v -1 2 -0
v 2 2 -0
v 5 2 -0
v 8 2 -0
v -8 2 -1
v -7 2 -1
v 0 2 -1
v 3 2 -1
v 5 2 -1
v 7 2 -1
v 8 2 -1
v -8 2 -2
v -7 2 -2
v -5 2 -2
v -2 2 -2
v 0 2 -2
v 3 2 -2
v 5 2 -2
v 7 2 -2
v -7 2 -3
v -5 2 -3
v -3 2 -3
v -2 2 -3
v 0 2 -3
v 3 2 -3
v 5 2 -3
v 8 2 -3
v -8 2 -4
v -5 2 -4
v -3 2 -4
v 5 2 -4
v 8 2 -4
v -8 2 -5
v -5 2 -5
v -2 2 -5
v 1 2 -5
v 7 2 -5
v 8 2 -5
v -8 2 -6
v -5 2 -6
v -3 2 -6
v -2 2 -6
v 1 2 -6
v 5 2 -6
v 7 2 -6
v 8 2 -6
v -6 2 -7
v -5 2 -7
v -3 2 -7
v -1 2 -7
v 1 2 -7
v 5 2 -7
v 7 2 -7
v -8 2 -8
v -6 2 -8
v -5 2 -8
v -3 2 -8
v -1 2 -8
v 5 2 -8
v 7 2 -8
v 8 2 -8

# faces
f 3/1/1 2/1/1 1/1/1
f 4/1/1 2/1/1 3/1/1
f 5/1/1 2/1/1 4/1/1
f 6/1/1 2/1/1 5/1/1
f 7/1/1 2/1/1 6/1/1
f 8/1/1 2/1/1 7/1/1
f 9/1/1 2/1/1 8/1/1
f 10/1/1 2/1/1 9/1/1
f 11/1/1 2/1/1 10/1/1
f 12/1/1 2/1/1 11/1/1
f 13/1/1 2/1/1 12/1/1
f 14/1/1 2/1/1 13/1/1
f 15/1/1 2/1/1 14/1/1
f 16/3/1 5/3/1 4/3/1
f 17/2/1 6/2/1 5/2/1
f 17/3/1 5/3/1 16/3/1
f 18/2/1 6/2/1 17/2/1
f 19/2/1 8/2/1 7/2/1
f 20/3/1 9/3/1 8/3/1
f 20/2/1 8/2/1 19/2/1
f 21/3/1 9/3/1 20/3/1
f 22/3/1 11/3/1 10/3/1
f 23/2/1 12/2/1 11/2/1
f 23/3/1 11/3/1 22/3/1
f 24/2/1 12/2/1 23/2/1
f 25/3/1 14/3/1 13/3/1
f 26/2/1 15/2/1 14/2/1
f 26/3/1 14/3/1 25/3/1
f 27/2/1 15/2/1 26/2/1
f 28/1/2 29/1/2 30/1/2
f 30/1/2 29/1/2 31/1/2
f 31/1/2 29/1/2 32/1/2
f 32/1/2 29/1/2 33/1/2
f 33/1/2 29/1/2 34/1/2
f 34/1/2 29/1/2 35/1/2
f 35/1/2 29/1/2 36/1/2
f 36/1/2 29/1/2 37/1/2
f 37/1/2 29/1/2 38/1/2
f 38/1/2 29/1/2 39/1/2
f 39/1/2 29/1/2 40/1/2
f 40/1/2 29/1/2 41/1/2
f 41/1/2 29/1/2 42/1/2
f 42/1/2 29/1/2 43/1/2
f 31/2/2 32/2/2 44/2/2
f 32/3/2 33/3/2 45/3/2
f 44/2/2 32/2/2 45/2/2
f 33/2/2 34/2/2 46/2/2
f 45/3/2 33/3/2 46/3/2
f 46/2/2 34/2/2 47/2/2
f 35/2/2 36/2/2 48/2/2
f 36/3/2 37/3/2 49/3/2
f 48/2/2 36/2/2 49/2/2
f 49/3/2 37/3/2 50/3/2
f 38/2/2 39/2/2 51/2/2
f 39/3/2 40/3/2 52/3/2
f 51/2/2 39/2/2 52/2/2
f 52/3/2 40/3/2 53/3/2
f 41/3/2 42/3/2 54/3/2
f 42/2/2 43/2/2 55/2/2
f 54/3/2 42/3/2 55/3/2
f 55/2/2 43/2/2 56/2/2
f 59/1/3 58/1/3 57/1/3
f 60/1/3 58/1/3 59/1/3
f 63/3/3 62/3/3 61/3/3
f 64/3/3 62/3/3 63/3/3
f 65/2/3 64/2/3 63/2/3
f 66/2/3 64/2/3 65/2/3
f 67/3/3 66/3/3 65/3/3
f 68/3/3 66/3/3 67/3/3
f 69/2/3 68/2/3 67/2/3
f 70/2/3 68/2/3 69/2/3
f 73/2/3 72/2/3 71/2/3
f 74/2/3 72/2/3 73/2/3
f 75/3/3 74/3/3 73/3/3
f 76/3/3 74/3/3 75/3/3
f 77/2/3 76/2/3 75/2/3
f 78/2/3 76/2/3 77/2/3
f 79/3/3 78/3/3 77/3/3
f 80/3/3 78/3/3 79/3/3
f 81/2/3 80/2/3 79/2/3
f 82/2/3 80/2/3 81/2/3
f 83/3/3 82/3/3 81/3/3
f 84/3/3 82/3/3 83/3/3
f 85/2/3 84/2/3 83/2/3
f 86/2/3 84/2/3 85/2/3
f 89/3/3 88/3/3 87/3/3
f 90/3/3 88/3/3 89/3/3
f 91/2/3 90/2/3 89/2/3
f 92/2/3 90/2/3 91/2/3
f 93/3/3 92/3/3 91/3/3
f 94/3/3 92/3/3 93/3/3
f 95/2/3 94/2/3 93/2/3
f 96/2/3 94/2/3 95/2/3
f 97/3/3 96/3/3 95/3/3
f 98/3/3 96/3/3 97/3/3
f 99/2/3 98/2/3 97/2/3
f 100/2/3 98/2/3 99/2/3
f 103/3/3 102/3/3 101/3/3
f 104/3/3 102/3/3 103/3/3
f 105/2/3 104/2/3 103/2/3
f 106/2/3 104/2/3 105/2/3
f 107/3/3 106/3/3 105/3/3
f 108/3/3 106/3/3 107/3/3
f 109/2/3 108/2/3 107/2/3
f 110/2/3 108/2/3 109/2/3
f 111/3/3 110/3/3 109/3/3
f 112/3/3 110/3/3 111/3/3
f 113/2/4 114/2/4 115/2/4
f 115/2/4 114/2/4 116/2/4
f 115/3/4 116/3/4 117/3/4
f 117/3/4 116/3/4 118/3/4
f 117/2/4 118/2/4 119/2/4
f 119/2/4 118/2/4 120/2/4
f 119/3/4 120/3/4 121/3/4
f 121/3/4 120/3/4 122/3/4
f 121/2/4 122/2/4 123/2/4
f 123/2/4 122/2/4 124/2/4
f 125/3/4 126/3/4 127/3/4
f 127/3/4 126/3/4 128/3/4
f 127/2/4 128/2/4 129/2/4
f 129/2/4 128/2/4 130/2/4
f 129/3/4 130/3/4 131/3/4
f 131/3/4 130/3/4 132/3/4
f 131/2/4 132/2/4 133/2/4
f 133/2/4 132/2/4 134/2/4
f 133/3/4 134/3/4 135/3/4
f 135/3/4 134/3/4 136/3/4
f 137/2/4 138/2/4 139/2/4
f 139/2/4 138/2/4 140/2/4
f 139/3/4 140/3/4 141/3/4
f 141/3/4 140/3/4 142/3/4
f 141/2/4 142/2/4 143/2/4
f 143/2/4 142/2/4 144/2/4
f 143/3/4 144/3/4 145/3/4
f 145/3/4 144/3/4 146/3/4
f 147/1/4 148/1/4 150/1/4
f 148/2/4 149/2/4 150/2/4
f 150/2/4 149/2/4 151/2/4
f 147/1/4 150/1/4 152/1/4
f 150/3/4 151/3/4 152/3/4
f 152/3/4 151/3/4 153/3/4
f 147/1/4 152/1/4 154/1/4
f 152/2/4 153/2/4 154/2/4
f 154/2/4 153/2/4 155/2/4
f 147/1/4 154/1/4 156/1/4
f 154/3/4 155/3/4 156/3/4
f 156/3/4 155/3/4 157/3/4
f 147/1/4 156/1/4 158/1/4
f 156/2/4 157/2/4 158/2/4
f 158/2/4 157/2/4 159/2/4
f 147/1/4 158/1/4 160/1/4
f 158/3/4 159/3/4 160/3/4
f 160/3/4 159/3/4 161/3/4
f 147/1/4 160/1/4 162/1/4
f 160/2/4 161/2/4 163/2/4
f 162/1/4 160/1/4 163/1/4
f 163/2/4 161/2/4 164/2/4
f 167/1/5 166/1/5 165/1/5
f 168/1/5 166/1/5 167/1/5
f 169/1/6 170/1/6 171/1/6
f 171/1/6 170/1/6 172/1/6
f 172/1/6 170/1/6 173/1/6
f 173/1/6 170/1/6 174/1/6
f 174/1/6 170/1/6 175/1/6
f 176/1/6 177/1/6 182/1/6
f 180/1/6 181/1/6 182/1/6
f 179/1/6 180/1/6 182/1/6
f 178/1/6 179/1/6 182/1/6
f 177/1/6 178/1/6 182/1/6
f 182/1/6 181/1/6 183/1/6
f 183/1/6 181/1/6 184/1/6
f 184/1/6 181/1/6 185/1/6
f 185/1/6 181/1/6 186/1/6
f 186/1/6 181/1/6 187/1/6
f 187/1/6 181/1/6 188/1/6
f 188/1/6 181/1/6 189/1/6
f 190/1/6 191/1/6 196/1/6
f 194/1/6 195/1/6 196/1/6
f 193/1/6 194/1/6 196/1/6
f 192/1/6 193/1/6 196/1/6
f 191/1/6 192/1/6 196/1/6
f 196/1/6 195/1/6 197/1/6
f 197/1/6 195/1/6 198/1/6
f 198/1/6 195/1/6 199/1/6
f 199/1/6 195/1/6 200/1/6
f 200/1/6 195/1/6 201/1/6
f 201/1/6 195/1/6 202/1/6
f 203/1/6 204/1/6 208/1/6
f 206/1/6 207/1/6 208/1/6
f 205/1/6 206/1/6 208/1/6
f 204/1/6 205/1/6 208/1/6
f 208/1/6 207/1/6 209/1/6
f 209/1/6 207/1/6 210/1/6
f 210/1/6 207/1/6 211/1/6
f 211/1/6 207/1/6 212/1/6
f 212/1/6 207/1/6 213/1/6
f 214/3/6 215/3/6 219/3/6
f 215/2/6 216/2/6 220/2/6
f 219/3/6 215/3/6 220/3/6
f 220/2/6 216/2/6 221/2/6
f 221/2/6 216/2/6 222/2/6
f 222/2/6 216/2/6 223/2/6
f 216/3/6 217/3/6 224/3/6
f 223/2/6 216/2/6 224/2/6
f 217/2/6 218/2/6 225/2/6
f 224/3/6 217/3/6 225/3/6
f 225/2/6 218/2/6 226/2/6
f 219/2/6 220/2/6 227/2/6
f 220/3/6 221/3/6 228/3/6
f 227/2/6 220/2/6 228/2/6
f 221/2/6 222/2/6 229/2/6
f 228/3/6 221/3/6 229/3/6
f 222/3/6 223/3/6 230/3/6
f 229/2/6 222/2/6 230/2/6
f 223/2/6 224/2/6 231/2/6
f 230/3/6 223/3/6 231/3/6
f 224/2/6 225/2/6 231/2/6
f 225/3/6 226/3/6 232/3/6
f 231/2/6 225/2/6 232/2/6
f 232/3/6 226/3/6 233/3/6
f 219/2/6 227/2/6 234/2/6
f 227/3/6 228/3/6 235/3/6
f 234/2/6 227/2/6 235/2/6
f 228/2/6 229/2/6 236/2/6
f 235/3/6 228/3/6 236/3/6
f 229/3/6 230/3/6 237/3/6
f 236/2/6 229/2/6 237/2/6
f 230/2/6 231/2/6 238/2/6
f 237/3/6 230/3/6 238/3/6
f 231/2/6 232/2/6 238/2/6
f 232/2/6 233/2/6 238/2/6
f 238/2/6 233/2/6 239/2/6
f 240/2/6 241/2/6 248/2/6
f 241/3/6 242/3/6 249/3/6
f 248/2/6 241/2/6 249/2/6
f 242/2/6 243/2/6 250/2/6
f 249/3/6 242/3/6 250/3/6
f 250/2/6 243/2/6 251/2/6
f 243/3/6 244/3/6 252/3/6
f 251/2/6 243/2/6 252/2/6
f 244/2/6 245/2/6 253/2/6
f 252/3/6 244/3/6 253/3/6
f 245/3/6 246/3/6 254/3/6
f 253/2/6 245/2/6 254/2/6
f 254/3/6 246/3/6 255/3/6
f 246/2/6 247/2/6 256/2/6
f 255/3/6 246/3/6 256/3/6
f 240/2/6 248/2/6 257/2/6
f 248/3/6 249/3/6 258/3/6
f 257/2/6 248/2/6 258/2/6
f 249/2/6 250/2/6 259/2/6
f 258/3/6 249/3/6 259/3/6
f 250/3/6 251/3/6 260/3/6
f 259/2/6 250/2/6 260/2/6
f 260/3/6 251/3/6 261/3/6
f 251/2/6 252/2/6 262/2/6
f 261/3/6 251/3/6 262/3/6
f 252/2/6 253/2/6 262/2/6
f 254/3/6 255/3/6 263/3/6
f 262/2/6 253/2/6 263/2/6
f 253/3/6 254/3/6 263/3/6
f 255/2/6 256/2/6 264/2/6
f 263/3/6 255/3/6 264/3/6
f 256/2/6 247/2/6 265/2/6
f 264/2/6 256/2/6 265/2/6
f 257/3/6 258/3/6 266/3/6
f 258/2/6 259/2/6 267/2/6
f 266/3/6 258/3/6 267/3/6
f 260/2/6 261/2/6 267/2/6
f 259/2/6 260/2/6 267/2/6
f 261/3/6 262/3/6 268/3/6
f 267/2/6 261/2/6 268/2/6
f 262/3/6 263/3/6 268/3/6
f 263/2/6 264/2/6 269/2/6
f 268/3/6 263/3/6 269/3/6
f 264/3/6 265/3/6 270/3/6
f 269/2/6 264/2/6 270/2/6
f 270/3/6 265/3/6 271/3/6
f 272/3/6 273/3/6 279/3/6
f 273/2/6 274/2/6 280/2/6
f 279/3/6 273/3/6 280/3/6
f 280/2/6 274/2/6 281/2/6
f 281/2/6 274/2/6 282/2/6
f 274/3/6 275/3/6 283/3/6
f 282/2/6 274/2/6 283/2/6
f 275/2/6 276/2/6 284/2/6
f 283/3/6 275/3/6 284/3/6
f 276/3/6 277/3/6 285/3/6
f 284/2/6 276/2/6 285/2/6
f 277/2/6 278/2/6 286/2/6
f 285/3/6 277/3/6 286/3/6
f 279/2/6 280/2/6 287/2/6
f 280/3/6 281/3/6 287/3/6
f 281/2/6 282/2/6 288/2/6
f 287/3/6 281/3/6 288/3/6
f 288/2/6 282/2/6 289/2/6
f 282/3/6 283/3/6 290/3/6
f 289/2/6 282/2/6 290/2/6
f 283/2/6 284/2/6 291/2/6
f 290/3/6 283/3/6 291/3/6
f 284/3/6 285/3/6 292/3/6
f 291/2/6 284/2/6 292/2/6
f 285/2/6 286/2/6 293/2/6
f 292/3/6 285/3/6 293/3/6
f 286/2/6 278/2/6 294/2/6
f 293/2/6 286/2/6 294/2/6
f 279/2/6 287/2/6 295/2/6
f 287/2/6 288/2/6 295/2/6
f 288/3/6 289/3/6 296/3/6
f 295/2/6 288/2/6 296/2/6
f 290/2/6 291/2/6 297/2/6
f 296/3/6 289/3/6 297/3/6
f 289/2/6 290/2/6 297/2/6
f 292/2/6 293/2/6 297/2/6
f 291/2/6 292/2/6 297/2/6
f 293/3/6 294/3/6 298/3/6
f 297/2/6 293/2/6 298/2/6
f 298/3/6 294/3/6 299/3/6
f 300/3/6 301/3/6 306/3/6
f 301/2/6 302/2/6 307/2/6
f 306/3/6 301/3/6 307/3/6
f 307/2/6 302/2/6 308/2/6
f 302/3/6 303/3/6 309/3/6
f 308/2/6 302/2/6 309/2/6
f 303/2/6 304/2/6 310/2/6
f 309/3/6 303/3/6 310/3/6
f 310/2/6 304/2/6 311/2/6
f 304/3/6 305/3/6 312/3/6
f 311/2/6 304/2/6 312/2/6
f 312/3/6 305/3/6 313/3/6
f 306/2/6 307/2/6 314/2/6
f 307/3/6 308/3/6 315/3/6
f 314/2/6 307/2/6 315/2/6
f 308/2/6 309/2/6 316/2/6
f 315/3/6 308/3/6 316/3/6
f 309/2/6 310/2/6 316/2/6
f 316/2/6 310/2/6 317/2/6
f 310/3/6 311/3/6 318/3/6
f 317/2/6 310/2/6 318/2/6
f 312/2/6 313/2/6 319/2/6
f 318/3/6 311/3/6 319/3/6
f 311/2/6 312/2/6 319/2/6
f 319/2/6 313/2/6 320/2/6
f 306/2/6 314/2/6 321/2/6
f 314/3/6 315/3/6 322/3/6
f 321/2/6 314/2/6 322/2/6
f 315/2/6 316/2/6 323/2/6
f 322/3/6 315/3/6 323/3/6
f 316/3/6 317/3/6 324/3/6
f 323/2/6 316/2/6 324/2/6
f 317/2/6 318/2/6 325/2/6
f 324/3/6 317/3/6 325/3/6
f 318/2/6 319/2/6 325/2/6
f 319/3/6 320/3/6 326/3/6
f 325/2/6 319/2/6 326/2/6
f 320/2/6 313/2/6 327/2/6
f 326/3/6 320/3/6 327/3/6
f 327/2/6 313/2/6 328/2/6
